<svg width="78" height="24" viewBox="0 0 78 24" fill="none" xmlns="http://www.w3.org/2000/svg">
<path fill-rule="evenodd" clip-rule="evenodd" d="M10.5006 8.14286C11.4473 8.14286 12.2148 7.37534 12.2148 6.42857V3.59341C12.2148 3.26568 11.9492 3 11.6214 3H9.24781C6.62597 3 4.50056 5.12542 4.50056 7.74725C4.50056 7.96574 4.67768 8.14286 4.89616 8.14286H10.5006ZM18.6429 5.57146C18.6429 6.99162 17.4916 8.14289 16.0714 8.14289C14.6513 8.14289 13.5 6.99162 13.5 5.57146C13.5 4.1513 14.6513 3.00003 16.0714 3.00003C17.4916 3.00003 18.6429 4.1513 18.6429 5.57146ZM4.5 9.82429C4.5 9.6058 4.67712 9.42868 4.8956 9.42868H15.1813C17.8032 9.42868 19.9286 11.5541 19.9286 14.1759C19.9286 14.3944 19.7515 14.5715 19.533 14.5715H9.24725C6.62542 14.5715 4.5 12.4461 4.5 9.82429ZM7.49944 15.8572C6.55267 15.8572 5.78516 16.6247 5.78516 17.5715V19.2858C5.78516 20.2326 6.55267 21.0001 7.49944 21.0001H9.21373C10.1605 21.0001 10.928 20.2326 10.928 19.2858V17.5715C10.928 16.6247 10.1605 15.8572 9.21373 15.8572H7.49944ZM12.2148 17.5715C12.2148 16.6247 12.9824 15.8572 13.9291 15.8572H19.5335C19.752 15.8572 19.9291 16.0343 19.9291 16.2528C19.9291 18.8747 17.8037 21.0001 15.1819 21.0001H12.8083C12.4805 21.0001 12.2148 20.7344 12.2148 20.4067V17.5715Z" fill="white"/>
<path d="M69.8244 21C65.439 21 62.7734 18.2771 62.7734 13.8057C62.7734 9.27708 65.525 6.64014 69.8244 6.64014C74.0951 6.64014 76.8467 9.27708 76.8467 13.8057C76.8467 18.2771 74.1811 21 69.8244 21ZM69.8244 10.1943C67.818 10.1943 66.7002 11.5987 66.7002 13.7771C66.7002 15.9841 67.7894 17.4172 69.7957 17.4172C71.8308 17.4172 72.9486 15.9841 72.9486 13.7771C72.9486 11.5987 71.8021 10.1943 69.8244 10.1943Z" fill="white"/>
<path d="M61.4424 3.02832V20.5984H57.5156V3.02832H61.4424Z" fill="white"/>
<path d="M49.1838 21C44.7984 21 42.1328 18.2771 42.1328 13.8057C42.1328 9.27708 44.8844 6.64014 49.1838 6.64014C53.4545 6.64014 56.206 9.27708 56.206 13.8057C56.206 18.2771 53.5404 21 49.1838 21ZM49.1838 10.1943C47.1774 10.1943 46.0596 11.5987 46.0596 13.7771C46.0596 15.9841 47.1487 17.4172 49.1551 17.4172C51.1901 17.4172 52.308 15.9841 52.308 13.7771C52.308 11.5987 51.1615 10.1943 49.1838 10.1943Z" fill="white"/>
<path d="M34.1035 21C28.543 20.9713 26.6513 18.1911 26.25 15.0669L30.2914 14.2643C30.6927 16.328 32.2404 17.4458 34.3901 17.4458C36.1099 17.4458 37.0844 16.8439 37.0844 15.7548C37.0844 14.6656 36.1958 14.0923 33.129 13.6337C28.371 12.9172 26.8519 10.9395 26.8519 8.21655C26.8519 4.9777 29.1736 3 33.6736 3C38.4029 3 40.3519 5.4363 40.9538 8.53184L36.8837 9.36305C36.3965 7.41401 35.508 6.46815 33.4443 6.46815C31.8392 6.46815 31.0366 7.12738 31.0366 8.13057C31.0366 9.0191 31.4952 9.707 35.1067 10.2516C40.0079 11.0255 41.2978 13.1751 41.2978 15.6114C41.2978 18.879 39.0907 21 34.1035 21Z" fill="white"/>
</svg>
